<svg xmlns="http://www.w3.org/2000/svg" viewBox="0 0 102 92" width="102" height="92">
	<style>
		tspan { white-space:pre }
		.shp0 { fill: #ffffff } 
	</style>
	<path id="Shape 5" class="shp0" d="M49.56 1.02C46.05 1.02 43.18 3.46 42.53 6.78L42.35 6.78L19.28 32.74L30.82 32.74L46.77 14.81C47.63 15.17 48.57 15.44 49.56 15.44C50.56 15.44 51.48 15.17 52.36 14.81L68.3 32.74L79.85 32.74L56.77 6.78L56.58 6.78C55.95 3.46 53.08 1.02 49.56 1.02L49.56 1.02ZM7.75 38.5C4.56 38.5 1.98 41.08 1.98 44.28L1.98 47.16C1.98 50.2 4.31 52.6 7.3 52.84L16.4 84.64C19.28 90.42 22.17 90.42 25.04 90.42L76.96 90.42C79.85 90.42 82.71 90.42 85.6 84.64L94.71 52.84C97.68 52.6 100.02 50.2 100.02 47.16L100.02 44.28C100.02 41.08 97.46 38.5 94.26 38.5L7.75 38.5L7.75 38.5ZM23.97 52.92L25.41 52.92C28.61 52.92 31.76 55.33 32.43 58.33L36.49 76.27C37.17 79.28 35.1 81.76 31.9 81.76L30.45 81.76C27.26 81.76 24.1 79.28 23.42 76.27L19.37 58.33C18.69 55.33 20.78 52.92 23.97 52.92L23.97 52.92ZM51.01 52.92C54.2 52.92 56.77 55.5 56.77 58.7L56.77 76C56.77 79.2 54.2 81.76 51.01 81.76C47.81 81.76 45.23 79.2 45.23 76L45.23 58.7C45.23 55.5 47.81 52.92 51.01 52.92L51.01 52.92ZM76.59 52.92L78.04 52.92C81.24 52.92 83.31 55.33 82.63 58.33L78.58 76.27C77.9 79.28 74.75 81.76 71.55 81.76L70.1 81.76C66.91 81.76 64.84 79.28 65.51 76.27L69.57 58.33C70.24 55.33 73.39 52.92 76.59 52.92L76.59 52.92Z" />
</svg>