<svg xmlns="http://www.w3.org/2000/svg" viewBox="0 0 98 85" width="98" height="85">
	<style>
		tspan { white-space:pre }
		.shp0 { fill: #ffffff } 
	</style>
	<path id="Shape 6" class="shp0" d="M13.15 1.97C6.96 1.97 1.98 6.97 1.98 13.16L1.98 55.07C1.98 61.27 6.96 66.25 13.15 66.25L38.3 66.25L38.3 74.63L27.13 74.63C25.58 74.63 24.33 75.88 24.33 77.43L24.33 83.02L74.63 83.02L74.63 77.43C74.63 75.88 73.38 74.63 71.84 74.63L60.66 74.63L60.66 66.25L85.81 66.25C92 66.25 96.98 61.27 96.98 55.07L96.98 13.16C96.98 6.97 92 1.97 85.81 1.97L13.15 1.97L13.15 1.97ZM15.95 13.16L83.01 13.16C84.57 13.16 85.81 14.4 85.81 15.94L85.81 52.28C85.81 53.82 84.57 55.07 83.01 55.07L15.95 55.07C14.41 55.07 13.15 53.82 13.15 52.28L13.15 15.94C13.15 14.4 14.41 13.16 15.95 13.16L15.95 13.16Z" />
</svg>