<svg xmlns="http://www.w3.org/2000/svg" viewBox="0 0 81 112" width="81" height="112">
	<style>
		tspan { white-space:pre }
		.shp0 { fill: #ffffff } 
	</style>
	<path id="Shape 3" class="shp0" d="M76.69 28.12L70.12 38.66L37.33 18.25L43.9 7.7C46.79 3.04 52.92 1.62 57.58 4.52L73.51 14.43C78.16 17.33 79.59 23.46 76.69 28.12ZM37.27 91.31L4.55 70.9L34.84 22.36L67.55 42.78L37.27 91.31ZM41.69 34.65C40.15 33.69 38.16 34.09 37.29 35.52L15.76 70.01C14.85 71.42 15.37 73.37 16.92 74.33C18.44 75.3 20.43 74.9 21.32 73.49L42.85 38.99C43.75 37.56 43.22 35.6 41.69 34.65ZM53.54 42.04C52.01 41.1 50.01 41.48 49.13 42.91L27.6 77.41C26.71 78.82 27.24 80.79 28.77 81.73C30.31 82.7 32.29 82.3 33.18 80.89L54.71 46.4C55.6 44.96 55.08 43.01 53.54 42.04ZM19.81 103.24C18.22 99.91 15.74 96.96 12.38 94.87C9.02 92.78 5.28 91.86 1.6 91.9L1 76.69L33.69 97.09L19.81 103.24ZM10.59 97.74C13.35 99.45 15.38 101.89 16.61 104.66L2.34 110.98L1.73 95.39C4.75 95.27 7.83 96.02 10.59 97.74Z" />
</svg>