<svg xmlns="http://www.w3.org/2000/svg" viewBox="0 0 96 83" width="96" height="83">
	<style>
		tspan { white-space:pre }
		.shp0 { fill: #ffffff } 
	</style>
	<path id="Shape 6" class="shp0" d="M12.15 0.97C5.96 0.97 0.98 5.97 0.98 12.16L0.98 54.07C0.98 60.27 5.96 65.25 12.15 65.25L37.3 65.25L37.3 73.63L26.13 73.63C24.58 73.63 23.33 74.88 23.33 76.43L23.33 82.02L73.63 82.02L73.63 76.43C73.63 74.88 72.38 73.63 70.84 73.63L59.66 73.63L59.66 65.25L84.81 65.25C91 65.25 95.98 60.27 95.98 54.07L95.98 12.16C95.98 5.97 91 0.97 84.81 0.97L12.15 0.97L12.15 0.97ZM14.95 12.16L82.01 12.16C83.57 12.16 84.81 13.4 84.81 14.94L84.81 51.28C84.81 52.82 83.57 54.07 82.01 54.07L14.95 54.07C13.41 54.07 12.15 52.82 12.15 51.28L12.15 14.94C12.15 13.4 13.41 12.16 14.95 12.16L14.95 12.16Z" />
</svg>