<svg xmlns="http://www.w3.org/2000/svg" viewBox="0 0 78 108" width="78" height="108">
	<style>
		tspan { white-space:pre }
		.shp0 { fill: #ffffff } 
	</style>
	<path id="Shape 3" class="shp0" d="M75.69 25.12L69.12 35.66L36.33 15.25L42.9 4.7C45.79 0.04 51.92 -1.38 56.58 1.52L72.51 11.43C77.16 14.33 78.59 20.46 75.69 25.12ZM36.27 88.31L3.55 67.9L33.84 19.36L66.55 39.78L36.27 88.31ZM40.69 31.65C39.15 30.69 37.16 31.09 36.29 32.52L14.76 67.01C13.85 68.42 14.37 70.37 15.92 71.33C17.44 72.3 19.43 71.9 20.32 70.49L41.85 35.99C42.75 34.56 42.22 32.6 40.69 31.65ZM52.54 39.04C51.01 38.1 49.01 38.48 48.13 39.91L26.6 74.41C25.71 75.82 26.24 77.79 27.77 78.73C29.31 79.7 31.29 79.3 32.18 77.89L53.71 43.4C54.6 41.96 54.08 40.01 52.54 39.04ZM18.81 100.24C17.22 96.91 14.74 93.96 11.38 91.87C8.02 89.78 4.28 88.86 0.6 88.9L0 73.69L32.69 94.09L18.81 100.24ZM9.59 94.74C12.35 96.45 14.38 98.89 15.61 101.66L1.34 107.98L0.73 92.39C3.75 92.27 6.83 93.02 9.59 94.74Z" />
</svg>