<svg xmlns="http://www.w3.org/2000/svg" viewBox="0 0 27 27" width="27" height="27">
	<style>
		tspan { white-space:pre }
		.shp0 { fill: #ffffff } 
	</style>
	<path id="Shape 2" class="shp0" d="M13.5 2C7.15 2 2 7.15 2 13.5C2 19.85 7.15 25 13.5 25C19.85 25 25 19.85 25 13.5C25 7.15 19.85 2 13.5 2ZM19.45 12.63L14.24 17.84C13.24 18.85 11.87 19.1 11.18 18.41C11.17 18.4 11.17 18.39 11.16 18.38C11 18.3 10.85 18.22 10.72 18.09L7.56 14.93C6.96 14.33 6.96 13.35 7.56 12.74C8.17 12.13 9.15 12.13 9.76 12.74L12.06 15.04L16.96 10.14C17.96 9.14 19.33 8.88 20.02 9.57C20.71 10.26 20.46 11.63 19.45 12.63Z" />
</svg>