<svg xmlns="http://www.w3.org/2000/svg" viewBox="0 0 100 90" width="100" height="90">
	<style>
		tspan { white-space:pre }
		.shp0 { fill: #ffffff } 
	</style>
	<path id="Shape 5" class="shp0" d="M48.56 0.02C45.05 0.02 42.18 2.46 41.53 5.78L41.35 5.78L18.28 31.74L29.82 31.74L45.77 13.81C46.63 14.17 47.57 14.44 48.56 14.44C49.56 14.44 50.48 14.17 51.36 13.81L67.3 31.74L78.85 31.74L55.77 5.78L55.58 5.78C54.95 2.46 52.08 0.02 48.56 0.02L48.56 0.02ZM6.75 37.5C3.56 37.5 0.98 40.08 0.98 43.28L0.98 46.16C0.98 49.2 3.31 51.6 6.3 51.84L15.4 83.64C18.28 89.42 21.17 89.42 24.04 89.42L75.96 89.42C78.85 89.42 81.71 89.42 84.6 83.64L93.71 51.84C96.68 51.6 99.02 49.2 99.02 46.16L99.02 43.28C99.02 40.08 96.46 37.5 93.26 37.5L6.75 37.5L6.75 37.5ZM22.97 51.92L24.41 51.92C27.61 51.92 30.76 54.33 31.43 57.33L35.49 75.27C36.17 78.28 34.1 80.76 30.9 80.76L29.45 80.76C26.26 80.76 23.1 78.28 22.42 75.27L18.37 57.33C17.69 54.33 19.78 51.92 22.97 51.92L22.97 51.92ZM50.01 51.92C53.2 51.92 55.77 54.5 55.77 57.7L55.77 75C55.77 78.2 53.2 80.76 50.01 80.76C46.81 80.76 44.23 78.2 44.23 75L44.23 57.7C44.23 54.5 46.81 51.92 50.01 51.92L50.01 51.92ZM75.59 51.92L77.04 51.92C80.24 51.92 82.31 54.33 81.63 57.33L77.58 75.27C76.9 78.28 73.75 80.76 70.55 80.76L69.1 80.76C65.91 80.76 63.84 78.28 64.51 75.27L68.57 57.33C69.24 54.33 72.39 51.92 75.59 51.92L75.59 51.92Z" />
</svg>